<svg width="430" height="382" viewBox="0 0 430 382" fill="none" xmlns="http://www.w3.org/2000/svg">
<path d="M378.748 265.619C371.181 283.135 344.271 302.806 318.537 309.35C318.19 309.43 318.018 309.871 318.106 310.253C318.194 310.634 318.52 310.86 318.954 310.76C344.927 304.06 372.313 284.079 379.988 266.237C380.182 265.891 379.985 265.434 379.659 265.208C379.355 265.077 378.921 265.177 378.748 265.619Z" fill="black"/>
<path d="M369.762 287.681C368.011 290.395 362.211 296.555 356.921 299.383C356.596 299.559 356.51 299.98 356.685 300.342C356.838 300.608 357.165 300.833 357.425 300.773C357.512 300.753 357.512 300.753 357.599 300.733C363.062 297.865 369.057 291.359 370.894 288.624C371.088 288.278 371 287.897 370.739 287.556C370.412 287.33 369.978 287.43 369.762 287.681Z" fill="black"/>
<path d="M196.668 163.629C196.343 163.805 196.149 164.151 196.345 164.608L254.323 315.939C254.497 316.3 254.802 316.431 255.062 316.37L255.149 316.35C255.474 316.175 255.669 315.829 255.472 315.372L197.495 164.041C197.407 163.66 196.993 163.454 196.668 163.629Z" fill="black"/>
<path d="M403.714 193.969L349.192 147.499C349.799 146.958 350.253 146.551 350.383 146.32C350.642 145.859 351.31 143.997 351.148 140.921C351.007 137.539 348.921 137.217 347.792 137.076C347.227 137.005 346.942 136.167 346.631 134.029C346.298 131.796 344.101 130.596 342.125 130.349C341.929 130.294 341.755 130.334 341.669 130.354C341.139 127.664 339.437 125.044 337.244 125.048C336.701 125.073 336.158 125.098 335.746 125.294C335.587 123.02 335.039 121.439 334.08 120.455C333.34 119.622 332.253 119.27 330.993 119.36C328.822 119.46 324.507 121.36 323.012 122.408C322.622 122.699 322.124 123.316 321.649 124.029L292.864 99.5388C290.491 97.5758 287.169 97.8405 285.33 100.173L264.932 125.472C264.78 125.608 264.737 125.818 264.781 126.009C264.803 126.104 264.847 126.295 264.956 126.37C262.758 131.9 261.809 133.726 256.502 138.065C255.505 138.897 254.574 139.614 253.642 140.332C246.329 134.789 231.62 125.73 223.599 123.063C218.643 121.395 214.278 121.498 211.173 121.512C209.349 121.532 207.894 121.566 207.089 121.25C200.718 118.603 193.316 119.408 186.401 123.515C180.614 126.96 176.924 127.611 172.56 127.715C170.298 126.63 167.69 126.027 164.802 126.191C163.456 126.301 162.502 126.522 161.851 126.873C163.172 118.734 160.083 110.106 157.308 104.42C156.652 103.165 156.084 101.89 155.45 100.73C157.533 93.1187 156.055 85.927 151.682 83.2206C150.833 82.7134 150.008 82.703 149.206 83.1895C148.253 83.8114 147.649 85.156 147.263 86.6513C145.713 84.2972 144.164 81.943 142.615 79.5889L141.742 78.1835C139.626 74.956 137.641 72.3006 135.854 70.1019C136.545 69.1387 136.846 68.0649 136.777 66.9759C136.511 65.0288 134.898 63.1915 131.873 61.178C125.715 57.0758 112.822 59.048 104.779 63.4158C104.777 62.6129 104.621 61.5439 104.098 60.8612C103.792 60.3292 103.27 60.048 102.792 59.9575C99.9459 59.5097 98.1684 60.5227 97.308 63.1319C97.028 63.8996 96.8362 65.0486 97.4256 66.0174C97.7312 66.5494 98.2533 66.8307 99.0358 67.0518C94.0309 70.7181 90.8061 74.1744 87.7442 81.1084C85.1137 87.1393 84.8357 95.4393 87.2151 99.4096C88.0881 100.815 89.1983 101.664 90.4795 101.669C91.1312 101.719 91.652 101.599 92.2596 101.459C92.4332 101.419 92.6068 101.379 92.7804 101.339C94.4447 105.775 96.7581 109.46 99.486 113.751C99.6168 113.922 99.6388 114.017 99.7696 114.188C97.2266 113.469 95.0334 113.474 94.344 115.24C93.5471 117.332 94.3188 121.071 97.5197 123.847C99.9369 126.001 103.959 127.583 107.281 127.318C110.95 134.104 114.225 139.576 121.429 144.642C123.061 145.771 124.736 146.69 126.345 147.323C127.195 148.232 127.98 149.256 128.634 150.109C127.924 152.182 124.959 155.578 123.639 156.987C119.058 157.342 110.679 165.403 102.43 173.233C101.391 174.276 100.243 175.245 99.2908 176.268C99.1392 176.403 99.0316 176.729 99.0757 176.92C95.4143 179.674 92.8644 183.677 89.1144 192.779C88.5105 194.124 87.9507 195.659 87.2393 197.33C83.1666 207.41 76.9817 222.597 68.8684 232.204L68.7168 232.34C67.0726 234.326 66.4455 235.174 68.408 237.734C68.6696 238.075 69.1489 238.567 69.737 239.135C69.0256 240.805 68.357 242.265 67.7532 243.61C65.2951 249.199 64.4541 251.101 64.1119 252.787C64.0692 252.998 63.9836 253.419 63.9201 253.936C63.1502 257.729 61.311 266.792 61.7576 270.706C62.2274 275.117 64.0546 283.032 64.7553 284.879C65.456 286.725 68.5934 290.019 70.6986 289.633C71.2194 289.513 71.7402 289.393 72.3258 289.157C73.6706 288.646 75.2978 288.169 76.6023 288.672C77.9936 289.154 81.3813 289.175 85.7213 288.174C89.8877 287.212 95.0064 285.226 99.9465 281.675C105.277 277.833 108.698 274.834 111.427 272.396C113.917 270.114 115.888 268.353 118.38 266.874C123.582 263.664 129.761 260.329 137.014 260.463C137.47 260.458 137.926 260.453 138.404 260.543C142.698 265.679 144.722 274.05 144.942 275.003C145.052 275.48 145.793 276.314 147.339 277.463C146.757 278.903 147.131 280.524 148.482 282.02C148.613 282.191 149.288 282.738 150.311 283.607C153.952 295.019 155.685 300.545 156.433 310.517C156.975 317.221 155.324 323.93 153.802 330.408C152.752 334.969 151.636 339.244 151.324 343.434C151.281 343.645 151.434 343.911 151.565 344.081C151.913 344.403 159.515 351.587 173.941 353.881C180.198 354.846 187.168 354.543 194.72 352.8C199.841 351.617 205.351 349.743 211.011 347.331C211.597 347.095 212.182 346.86 212.919 346.489C222.374 342.297 247.312 331.116 275.501 331.639C275.783 331.674 276 331.423 276.129 331.192C276.237 330.866 276.084 330.6 275.844 330.354C275.844 330.354 273.079 327.879 271.472 314.189L271.45 314.094L290.943 304.672C292.006 304.125 292.784 303.142 293.172 302.048C293.825 302.5 294.39 302.571 294.997 302.43C295.865 302.23 296.775 301.417 297.662 300.509C298.485 299.717 299.072 299.883 299.854 300.104C300.441 300.27 301.224 300.491 302.025 300.004C302.827 299.518 303.107 298.75 303.258 298.213C303.473 297.561 303.538 297.446 304.189 297.496C304.558 297.511 304.841 297.546 305.123 297.582C306.166 297.743 307.209 297.904 307.945 297.131C308.464 296.609 308.722 295.746 308.654 294.657C308.627 292.956 308.578 291.16 308.946 290.773C309.032 290.753 309.206 290.713 309.228 290.809C309.793 290.879 310.492 292.325 310.864 293.143C311.258 294.056 311.738 294.95 312.454 294.483C312.952 294.268 312.907 293.675 312.987 291.648C313.028 290.634 313.021 288.627 313.215 287.88C313.672 288.276 314.566 289.375 315.002 290.078C316.071 291.539 316.55 292.031 317.115 292.101C317.311 292.157 317.549 292.001 317.7 291.866C318.068 291.479 317.914 290.812 317.495 288.599C317.187 287.264 316.547 284.097 316.936 283.405C317.5 283.475 318.874 285.067 319.723 285.975C321.205 287.642 322.142 288.53 322.836 288.37C323.183 288.29 323.4 288.039 323.507 287.713C323.852 286.83 323.5 285.304 323.058 282.996C322.882 282.233 322.662 281.279 322.617 280.687C323.183 281.159 324.184 281.932 324.772 282.5C327.189 284.653 328.191 285.426 328.972 285.246C329.232 285.186 329.449 284.935 329.556 284.609C329.771 283.957 329.594 282.792 329.305 280.75C329.084 279.395 328.816 277.046 328.922 276.319C329.596 276.464 331.272 277.785 332.274 278.558C334.472 280.16 335.256 280.782 335.95 280.622C336.21 280.562 336.362 280.426 336.469 280.1C336.642 279.659 336.575 278.971 336.244 277.541C335.935 275.804 335.405 273.115 336.402 272.282C337.246 271.585 339.684 273.432 340.925 274.451C342.297 275.641 343.168 276.244 343.708 275.416C344.054 274.934 343.856 274.076 343.307 272.094C342.846 270.493 341.99 267.577 342.574 266.94C343.007 266.438 345.726 267.92 346.965 268.537C348.967 269.682 350.098 270.225 350.769 269.568C351.266 268.951 351.111 267.882 350.714 265.764C350.492 264.409 350.029 262.005 350.461 261.503C351.456 260.269 352.174 260.606 353.653 261.469C354.393 261.901 355.133 262.333 355.98 262.439C356.827 262.544 357.413 262.309 357.846 261.807C358.624 260.824 358.293 258.992 357.875 257.18C357.5 255.559 357.385 253.477 357.992 252.935C358.382 252.644 359.099 252.981 359.535 253.282C362.515 255.105 363.886 255.893 364.666 255.311C365.272 254.769 365.03 253.721 364.964 253.434C364.876 253.053 364.788 252.672 364.678 252.195C364.019 249.736 363.556 247.733 364.727 247.262C365.638 246.851 367.464 247.233 369.093 247.56C371.288 247.957 372.613 248.153 373.306 247.591C373.545 247.436 373.652 247.11 373.76 246.784C373.864 245.253 373.185 243.502 372.331 241.389C372.156 241.027 372.068 240.646 371.872 240.189C371.675 239.732 371.368 238.799 371.778 238.202C372.276 237.585 373.513 237.4 375.339 237.782L375.903 237.852C378.489 238.36 379.554 238.616 380.203 237.864C380.679 237.151 380.35 236.123 380.021 235.094C379.868 234.828 379.802 234.542 379.649 234.276C382.228 232.776 388.498 230.626 388.498 230.626C388.671 230.586 388.736 230.47 388.801 230.355L405.107 201.983C406.619 199.425 406 195.952 403.714 193.969ZM342.021 131.88C342.499 131.97 345.063 132.383 345.329 134.33C345.508 135.896 345.885 138.32 347.688 138.606C348.818 138.747 349.752 138.833 349.802 141.031C349.898 143.821 349.251 145.377 349.143 145.703C349.079 145.818 348.624 146.224 347.995 146.671C347.692 146.942 347.302 147.233 346.826 147.544C345.33 148.592 343.401 149.74 341.645 150.447C338.565 151.761 337.305 151.449 336.869 151.148C336.716 150.882 336.647 149.391 337.469 148.599C337.773 148.328 338.488 147.862 339.29 147.375C340.568 146.578 342.172 145.605 343.298 144.541C343.45 144.406 343.601 144.27 343.753 144.135C343.905 144 344.121 143.749 344.25 143.518C345.007 142.439 345.827 140.844 345.914 140.824C346.109 140.478 345.998 140.001 345.672 139.775C345.346 139.549 344.912 139.649 344.717 139.995C344.458 140.457 343.745 141.726 343.118 142.574L341.507 141.138C342.352 140.441 343.154 139.955 343.782 139.508C344.172 139.217 344.584 139.022 344.887 138.751C345.19 138.48 345.276 138.059 345.014 137.717C344.752 137.376 344.383 137.361 344.058 137.536C343.755 137.807 343.43 137.983 343.04 138.273C342.325 138.74 341.371 139.362 340.397 140.29C340.093 140.561 339.704 140.852 339.422 141.218C339.119 141.489 338.838 141.855 338.579 142.316C335.897 145.748 331.807 150.207 328.858 151.692C328.272 151.927 327.188 152.379 326.665 151.696C326.185 151.204 326.182 150 326.635 149.192C327.433 147.501 329.986 144.3 332.364 141.14L333.143 140.157C333.922 139.173 334.614 138.21 335.176 137.478C335.241 137.362 335.392 137.227 335.457 137.111C335.674 136.861 335.803 136.63 336.02 136.379C336.928 135.165 337.62 134.202 338.226 133.66C339.308 132.406 340.804 131.759 342.021 131.88ZM334.905 127.195C335.143 127.04 335.317 127 335.577 126.94C336.163 126.704 336.706 126.679 337.249 126.654C338.617 126.64 339.904 128.652 340.28 130.675C339.087 131.051 337.959 131.713 337.223 132.485C336.552 133.142 335.86 134.106 334.801 135.455C334.671 135.686 334.455 135.937 334.325 136.168C334.26 136.283 334.109 136.418 333.979 136.649C333.417 137.382 332.79 138.229 332.033 139.308L331.341 140.271C329.525 142.699 327.773 145.012 326.541 146.803C324.549 148.87 321.599 149.953 320.121 149.49C319.534 149.325 319.468 149.039 319.424 148.848C318.855 147.172 320.174 145.36 321.341 143.685C321.903 142.952 322.379 142.24 322.681 141.568C323.544 139.761 324.991 137.318 326.612 134.835C327.346 133.661 328.06 132.793 328.796 132.02C329.099 131.749 329.381 131.383 329.684 131.112C330.377 130.551 331.048 129.894 331.915 129.292C333.128 128.208 333.994 127.606 334.905 127.195ZM321.542 138.616C322.408 137.613 323.359 136.188 324.007 135.034C324.353 134.553 324.612 134.091 324.828 133.84C325.455 132.993 326.45 131.759 327.338 130.851L327.577 131.097C326.841 131.869 326.127 132.737 325.393 133.911C324.096 135.817 322.908 137.799 322.023 139.51C322.021 139.108 321.782 138.862 321.542 138.616ZM328.29 129.827C328.377 129.807 328.355 129.712 328.442 129.692C328.615 129.652 329.027 129.456 329.526 129.241C329.223 129.511 328.92 129.782 328.616 130.053L328.29 129.827ZM321.85 126.091C322.11 125.63 322.391 125.263 322.585 124.917C322.996 124.32 323.429 123.819 323.645 123.568C324.966 122.56 329.066 120.91 330.954 120.775C331.866 120.766 332.54 120.912 333.041 121.499C333.76 122.237 334.199 123.742 334.314 125.825C333.664 126.176 332.862 126.662 332.082 127.244C331.929 126.978 331.538 126.868 331.278 126.928C331.191 126.948 328.501 127.971 327.851 128.322C327.677 128.362 327.461 128.612 327.245 128.863C326.941 129.134 326.66 129.5 326.292 129.887C325.275 131.025 324.215 132.375 323.869 132.856C323.653 133.107 323.394 133.569 322.983 134.166C322.249 135.34 321.125 137.206 320.151 138.134C319.935 138.385 319.696 138.541 319.545 138.676C319.458 138.696 319.393 138.811 319.197 138.756C319.024 138.796 318.806 138.646 318.502 138.515C317.936 138.043 317.651 137.205 317.736 136.783C318.247 133.451 318.678 132.548 319.412 130.973L319.671 130.511C319.994 129.533 320.943 127.707 321.85 126.091ZM207.464 122.871C208.42 123.052 209.592 122.982 211.047 122.947C214.13 122.838 218.321 122.775 223.082 124.387C230.625 126.964 245.007 135.797 252.277 141.149C248.355 143.963 245.645 145.292 245.645 145.292C244.908 145.663 240.373 147.011 236.554 147.893C235.334 146.567 233.551 145.974 231.859 146.566L207.153 155.584L207.086 154.897C206.536 145.783 205.253 124.385 207.464 122.871ZM187.273 124.519C193.581 120.953 200.267 120.213 206.094 122.484C204.411 125.885 204.685 136.971 205.827 154.987L205.917 156.171L200.191 158.296C194.943 146.652 188.183 130.837 187.273 124.519ZM186.059 125.201C187.34 131.936 193.816 147.314 198.824 158.712L194.681 160.171C191.181 158.87 180.472 158.028 168.397 157.602C170.556 153.488 173.805 150.93 178.297 149.792C179.772 149.451 181.118 149.342 182.139 149.407C183.507 149.393 184.593 149.343 185.133 148.515C185.544 147.918 185.563 147.211 185.277 145.971C184.132 141.013 180.764 133.153 174.583 128.955C178.101 128.746 181.442 127.774 186.059 125.201ZM164.59 127.647C176.336 127.044 182.434 139.597 183.997 146.367C184.217 147.32 184.11 147.647 184.045 147.762C183.829 148.013 183.003 148.002 182.005 148.032C180.919 148.082 179.442 148.021 177.815 148.497C172.998 149.81 169.272 152.679 166.941 157.235C169.433 148.625 168.434 141.523 163.697 133.678C162.234 131.304 161.469 129.572 161.119 128.85C161.574 128.443 162.419 127.746 164.59 127.647ZM144.704 115.565C144.069 120.734 139.735 123.743 135.395 124.745C134.787 124.885 134.093 125.045 133.463 125.09C133.094 125.075 132.768 124.849 132.766 124.448C132.678 124.066 132.959 123.7 133.329 123.715C137.801 123.286 142.699 120.347 143.379 115.369C143.464 114.947 143.767 114.677 144.159 114.787C144.528 114.802 144.789 115.144 144.704 115.565ZM149.187 132.609C149.534 132.529 149.948 132.734 150.058 133.211L151.202 138.17C151.291 138.551 151.118 138.993 150.684 139.093C150.337 139.173 149.924 138.967 149.814 138.49L148.669 133.532C148.646 133.035 148.84 132.689 149.187 132.609ZM143.38 143.491C143.25 143.722 143.099 143.857 142.925 143.897C142.751 143.937 142.665 143.957 142.447 143.807C138.923 142.009 137.176 138.797 136.585 137.426C136.411 137.065 136.583 136.623 136.908 136.448C137.233 136.272 137.647 136.478 137.821 136.84C138.215 137.753 139.745 140.815 142.964 142.482C143.377 142.688 143.574 143.145 143.38 143.491ZM137.869 144.964C138.173 145.095 138.37 145.551 138.175 145.898C138.133 146.108 137.894 146.264 137.721 146.304C137.547 146.344 137.46 146.364 137.243 146.213C133.719 144.416 131.972 141.203 131.381 139.833C131.206 139.472 131.379 139.03 131.704 138.855C132.029 138.679 132.442 138.885 132.617 139.246C133.12 140.235 134.649 143.297 137.869 144.964ZM137.358 148.296C139.441 147.815 141.719 146.988 144.104 145.835C146.489 144.681 148.981 143.202 151.777 141.452C156.458 138.362 159.161 134.625 160.625 130.671C161.106 131.564 161.783 132.915 162.7 134.511C167.306 142.185 168.175 149.116 165.487 157.671C155.736 157.411 145.464 157.272 137.603 157.279L137.494 157.203C132.861 154.557 131.596 153.041 131.028 151.766C130.831 151.309 130.416 150.702 129.806 150.039C129.784 149.944 129.675 149.869 129.653 149.773C129.37 149.337 128.999 148.92 128.607 148.408C131.301 148.991 134.233 149.017 137.358 148.296ZM151.254 126.909C151.079 126.547 151.078 126.146 151.381 125.875C151.684 125.604 152.076 125.715 152.337 126.056C153.188 127.366 155.11 130.94 154.799 135.531C154.778 135.838 154.562 136.088 154.301 136.148C154.215 136.169 154.128 136.189 154.128 136.189C153.759 136.173 153.475 135.737 153.474 135.335C153.678 131.07 151.821 127.782 151.254 126.909ZM149.688 84.4844C149.991 84.2135 150.36 84.2287 150.796 84.53C153.885 86.428 155.856 91.7983 154.207 98.9084C152.962 96.6849 151.826 94.5366 150.516 92.4285C150.471 91.8363 150.448 91.3395 150.447 90.9381C150.533 90.918 150.642 90.9933 150.642 90.9933C151.077 91.2946 151.536 92.0927 151.801 93.6384C151.889 94.0198 152.238 94.3411 152.585 94.2609L152.672 94.2409C153.019 94.1607 153.213 93.8146 153.125 93.4331C152.903 91.6767 152.203 90.2312 151.333 89.6287C151.115 89.478 150.811 89.3474 150.528 89.3122C150.632 87.7817 151.086 86.9739 151.584 86.7583C151.91 86.5828 152.082 86.1413 151.907 85.7799C151.732 85.4185 151.319 85.2126 150.994 85.3881C150.17 85.7793 149.262 86.9933 149.206 89.9189L148.158 88.1521C148.283 86.7169 148.821 85.0862 149.688 84.4844ZM98.2055 65.4356C98.0527 65.1696 98.0294 64.6727 98.3093 63.9051C98.8251 62.179 99.6906 61.1757 102.363 61.6635C102.559 61.7188 102.668 61.7941 102.798 61.9647C103.191 62.4767 103.281 63.6611 103.175 64.3887C103.088 64.4087 103.024 64.5241 102.937 64.5442C102.048 65.0506 101.268 65.6325 100.553 66.0989C98.7936 66.0029 98.3363 65.6062 98.2055 65.4356ZM95.3989 98.4241C95.3989 98.4241 95.3121 98.4442 95.3341 98.5395C94.4894 99.2367 93.6006 99.7432 92.6678 100.059C91.8218 100.355 90.9538 100.555 90.2154 100.525C89.3901 100.514 88.7152 99.9672 88.1259 98.9984C86.2918 95.8061 85.9647 88.4493 88.7895 82.0723C91.959 74.8122 95.3794 71.4112 101.143 67.4691C101.923 66.8873 102.812 66.3808 103.679 65.7789C111.091 61.0546 124.937 58.4605 130.987 62.4874C133.577 64.1996 135.036 65.7709 135.193 67.2413C135.282 68.0242 135.002 68.7918 134.267 69.5644C134.267 69.5644 134.18 69.5844 134.202 69.6798C134.137 69.7951 133.985 69.9306 133.834 70.066C133.769 70.1814 133.595 70.2215 133.531 70.3369C133.444 70.3569 133.379 70.4723 133.292 70.4923C133.054 70.6478 132.902 70.7833 132.664 70.9387C132.577 70.9588 132.512 71.0742 132.426 71.0942C132.1 71.2697 131.775 71.4452 131.45 71.6207L131.125 71.7962C126.285 72.6124 117.804 75.8759 110.655 81.343C103.506 86.8101 98.0966 93.0808 97.5859 96.4127C97.2179 96.7989 96.7851 97.3006 96.3952 97.5915C95.8536 98.0178 95.6152 98.1733 95.3989 98.4241ZM134.367 73.9603C134.367 73.9603 134.389 74.0557 134.411 74.151C134.433 74.2464 134.368 74.3618 134.304 74.4772C134.326 74.5725 134.239 74.5926 134.174 74.708C133.958 74.9588 133.677 75.325 133.222 75.7313C133.222 75.7313 133.222 75.7313 133.135 75.7514C132.745 76.0423 132.29 76.4486 131.727 76.7796C130.426 77.4816 128.974 78.3191 127.412 79.0812C124.225 80.721 120.648 82.6516 116.271 85.4701C110.636 89.1814 106.846 92.5673 104.118 95.0051C103.75 95.3913 103.273 95.7023 102.905 96.0885C100.935 97.8492 99.2634 98.1346 98.7413 97.8533C98.6325 97.778 98.4369 97.7227 98.4784 97.1105C98.6444 94.6617 103.468 88.6267 111.072 82.7533C118.221 77.2862 125.748 74.6445 129.741 73.7227C130.262 73.6025 130.696 73.5023 131.043 73.4221L131.13 73.4021C131.303 73.362 131.39 73.342 131.564 73.3019C131.998 73.2017 132.28 73.2369 132.563 73.2721C132.736 73.2321 132.845 73.3074 132.932 73.2873L133.019 73.2673C133.214 73.3226 133.323 73.3979 133.497 73.3578C133.606 73.4331 133.801 73.4884 133.888 73.4684L133.997 73.5437C133.997 73.5437 133.997 73.5437 134.019 73.639C134.128 73.7143 134.128 73.7143 134.15 73.8097C134.345 73.865 134.367 73.9603 134.367 73.9603ZM98.06 123.019C95.2076 120.564 94.6767 117.473 95.2806 116.128C95.5825 115.456 96.7536 114.985 100.623 116.301C101.038 116.908 101.474 117.611 101.911 118.314C99.803 117.896 97.8053 117.956 96.6561 118.522C96.331 118.698 96.1586 119.14 96.3335 119.501C96.5083 119.862 96.9216 120.068 97.2467 119.893C97.8103 119.562 98.896 119.512 100.09 119.537C100.071 120.245 100.356 121.083 100.792 121.786C101.36 122.659 102.143 123.282 102.991 123.388C103.077 123.368 103.186 123.443 103.273 123.423C103.533 123.363 103.75 123.112 103.771 122.806C103.856 122.384 103.594 122.043 103.203 121.932C102.53 121.787 102.137 121.275 101.962 120.913C101.679 120.476 101.569 120 101.48 119.618C101.958 119.709 102.545 119.875 103.023 119.965C103.504 120.859 104.071 121.732 104.574 122.721C105.076 123.71 105.666 124.678 106.168 125.667C106.19 125.762 106.321 125.933 106.343 126.028C103.455 126.193 100.107 124.756 98.06 123.019ZM120.205 128.252C114.905 127.868 111.556 126.432 109.05 123.495C107.546 121.733 105.269 115.831 103.408 110.938C102.159 107.51 101.021 104.559 100.301 103.419L99.9728 102.792C99.2086 101.462 98.2268 99.9809 97.5053 98.44C97.5921 98.42 97.6569 98.3045 97.6569 98.3045C97.8318 98.6659 98.1582 98.8919 98.3758 99.0425C98.8979 99.3237 99.6584 99.4495 100.44 99.2691C101.568 99.0086 102.869 98.3066 104.081 97.2231C104.471 96.9322 104.839 96.5459 105.294 96.1396C108.023 93.7018 111.726 90.336 117.295 86.7401C121.586 83.9416 125.185 82.1064 128.263 80.3913C129.803 79.5338 131.277 78.7917 132.665 78.0696C133.077 77.874 133.38 77.6032 133.705 77.4277C135.473 80.3339 138.418 84.7761 140.986 86.393C144.62 88.6676 147.76 92.7637 150.93 99.7653C153.117 104.483 152.716 108.292 152.372 109.576C150.331 109.445 143.033 109.121 136.46 111.141C136.521 109.821 136.211 108.085 134.946 106.167C134.356 105.199 133.245 103.949 132.003 102.528C129.736 99.8374 126.859 96.4841 126.047 93.7589C125.674 92.5394 125.931 91.2749 126.752 90.0809C128.179 87.9437 131.344 86.2086 133.733 86.2597C134.102 86.2749 134.383 85.9087 134.382 85.5072C134.38 85.1058 134.032 84.7845 133.663 84.7693C130.905 84.703 127.328 86.6336 125.62 89.137C124.517 90.6973 124.197 92.4786 124.745 94.0595C125.645 97.1661 128.653 100.69 131.028 103.456C132.271 104.877 133.273 106.051 133.841 106.925C134.975 108.671 135.394 110.483 134.921 111.998C134.921 111.998 134.921 111.998 134.856 112.114C134.813 112.325 134.683 112.555 134.554 112.786C134.489 112.902 134.489 112.902 134.424 113.017C134.36 113.132 134.23 113.363 134.165 113.479C134.1 113.594 134.014 113.614 134.036 113.709C133.906 113.94 133.668 114.096 133.429 114.251C133.429 114.251 133.429 114.251 133.342 114.271C133.104 114.427 132.866 114.582 132.627 114.738C132.54 114.758 132.54 114.758 132.454 114.778C132.28 114.818 132.129 114.953 131.955 114.993C131.868 115.013 131.868 115.013 131.781 115.033C131.521 115.093 131.347 115.133 131.087 115.194C131 115.214 131 115.214 130.913 115.234C130.74 115.274 130.544 115.218 130.37 115.259C130.284 115.279 130.284 115.279 130.175 115.203C129.979 115.148 129.784 115.093 129.588 115.037C128.588 114.666 127.977 113.602 127.755 112.247C127.667 111.865 127.319 111.544 126.971 111.624C126.624 111.704 126.343 112.07 126.431 112.452C126.675 113.902 127.308 115.062 128.2 115.76C123.285 120.209 120.785 126.41 120.205 128.252ZM125.557 138.366C125.469 137.984 125.75 137.618 126.097 137.538C126.444 137.458 126.793 137.779 126.881 138.16C127.124 139.611 128.939 143.51 132.658 145.364C132.962 145.494 133.159 145.951 132.965 146.297C132.922 146.508 132.684 146.663 132.51 146.703C132.337 146.743 132.25 146.764 132.141 146.688C127.835 144.669 125.801 140.217 125.557 138.366ZM129.355 151.65C129.508 151.916 129.639 152.087 129.77 152.257C130.469 153.703 131.711 155.124 134.91 157.097C130.697 157.065 127.331 157.139 125.398 157.083C126.654 155.789 128.514 153.552 129.355 151.65ZM103.194 174.563C110.989 167.139 119.822 158.672 123.84 158.648C132.96 158.552 182.211 158.43 193.186 161.219L181.465 169.851C181.313 169.987 181.162 170.122 181.01 170.257C178.339 170.171 158.467 169.637 140.774 171.411C125.318 172.971 107.822 175.202 101.7 176.013C102.155 175.607 102.675 175.085 103.194 174.563ZM180.392 173.915L235.603 315.641L238.36 322.436C238.404 322.627 238.513 322.702 238.557 322.893L199.693 339.097C198.435 339.588 197.067 339.603 195.827 338.985C194.587 338.367 193.607 337.288 193.103 335.898L165.296 262.973C166.317 263.038 167.164 263.144 167.88 263.079C168.879 263.049 170.268 262.729 171.766 262.483L169.423 263.426C169.098 263.601 168.904 263.948 169.079 264.309C169.253 264.67 169.558 264.801 169.818 264.741L169.905 264.721L182.528 259.597L182.79 260.34C182.834 260.53 182.965 260.701 183.161 260.756C183.27 260.832 183.443 260.792 183.617 260.752L183.704 260.732L208.016 250.8L209.154 253.751L184.755 263.703C184.582 263.743 184.43 263.878 184.387 264.089C184.345 264.3 184.302 264.51 184.433 264.681L184.937 266.071L172.379 271.08C172.054 271.255 171.859 271.601 172.034 271.963C172.209 272.324 172.513 272.455 172.774 272.395L172.861 272.375L185.418 267.366L185.944 268.852C186.119 269.213 186.423 269.344 186.684 269.284L186.771 269.264L211.17 259.312L212.264 262.072L175.199 276.957C174.873 277.133 174.679 277.479 174.854 277.84C175.029 278.202 175.333 278.332 175.594 278.272L175.68 278.252L212.746 263.367L213.425 265.119L189.46 274.97C189.134 275.146 188.94 275.492 189.115 275.853L189.838 277.796L176.868 283C176.543 283.175 176.348 283.521 176.523 283.883C176.698 284.244 177.002 284.375 177.263 284.315L177.35 284.295L190.319 279.091L190.626 280.024C190.67 280.215 190.801 280.386 190.997 280.441C191.106 280.516 191.301 280.571 191.475 280.531L191.562 280.511L215.613 270.64L216.533 273.039L192.72 282.755C192.546 282.795 192.394 282.93 192.352 283.141C192.309 283.352 192.266 283.563 192.397 283.733L193.054 285.39L180.084 290.593C179.759 290.769 179.564 291.115 179.739 291.476C179.914 291.838 180.218 291.968 180.479 291.908L180.566 291.888L193.535 286.684L193.995 287.884C194.083 288.265 194.474 288.376 194.735 288.316L194.822 288.296L218.635 278.58L219.599 281.169L195.698 290.906C195.373 291.081 195.179 291.427 195.354 291.789L195.617 292.531L182.647 297.735C182.322 297.911 182.127 298.257 182.302 298.618C182.477 298.98 182.782 299.11 183.042 299.05L183.129 299.03L196.098 293.826L196.865 295.959C196.909 296.15 197.04 296.321 197.236 296.376C197.344 296.451 197.54 296.507 197.714 296.466L197.8 296.446L221.788 286.69L222.685 288.994L186.053 303.778C185.728 303.954 185.534 304.3 185.709 304.662C185.884 305.023 186.188 305.154 186.449 305.093L186.535 305.073L223.167 290.289L223.89 292.231L199.903 301.987C199.729 302.027 199.577 302.163 199.535 302.374C199.492 302.584 199.449 302.795 199.58 302.966L200.521 305.46L188.051 310.448C187.725 310.624 187.531 310.97 187.706 311.332C187.881 311.693 188.185 311.824 188.446 311.763L188.532 311.743L201.003 306.755L201.178 307.116C201.266 307.498 201.657 307.608 201.918 307.548L202.005 307.528L226.056 297.657L227.217 300.703L203.577 310.379C203.252 310.555 203.058 310.901 203.232 311.262L203.517 312.1L190.808 317.244C190.483 317.42 190.288 317.766 190.463 318.127C190.638 318.489 190.943 318.619 191.203 318.559L191.29 318.539L203.999 313.395L204.722 315.338C204.766 315.528 204.897 315.699 205.092 315.754C205.201 315.83 205.397 315.885 205.484 315.865L205.57 315.845L229.297 306.149L230.369 308.814L193.239 323.814C192.914 323.989 192.719 324.336 192.894 324.697C193.069 325.058 193.374 325.189 193.634 325.129L193.721 325.109L230.851 310.109L231.815 312.698L208.001 322.414C207.828 322.455 207.676 322.59 207.633 322.801C207.591 323.012 207.548 323.222 207.679 323.393L208.62 325.887L195.824 331.051C195.499 331.227 195.305 331.573 195.479 331.934C195.654 332.296 195.959 332.426 196.219 332.366L196.306 332.346L209.102 327.182L209.168 327.468C209.343 327.83 209.647 327.96 209.908 327.9L209.995 327.88L234.394 317.928L234.48 317.908L234.567 317.888L234.654 317.868C234.654 317.868 234.741 317.848 234.719 317.753C234.719 317.753 234.806 317.733 234.784 317.637C234.784 317.637 234.784 317.637 234.762 317.542C234.826 317.427 234.804 317.331 234.869 317.216L234.847 317.121L234.825 317.025L234.803 316.93L231.651 308.819L219.238 276.834L219.216 276.738L217.595 272.492L217.573 272.397L216.172 268.703L215.427 266.665L214.552 264.457C214.552 264.457 214.552 264.457 214.53 264.361L210.086 253.034L203.847 237.099C203.847 237.099 203.847 237.099 203.825 237.003L202.205 232.757L197.124 219.066L196.664 217.866L186.813 192.621L181.231 178.342L180.946 177.504C180.946 177.504 180.946 177.504 180.924 177.408C180.902 177.313 180.902 177.313 180.793 177.238C180.793 177.238 180.771 177.142 180.684 177.162L180.575 177.087C180.575 177.087 180.575 177.087 180.489 177.107C180.402 177.127 180.293 177.052 180.206 177.072L180.119 177.092L155.634 187.064C155.46 187.104 155.308 187.239 155.266 187.45C155.223 187.661 155.18 187.871 155.311 188.042L155.705 188.956L142.995 194.099C142.67 194.275 142.476 194.621 142.651 194.982C142.825 195.344 143.13 195.474 143.39 195.414L143.477 195.394L156.186 190.25L156.887 192.097C157.062 192.459 157.366 192.589 157.627 192.529L157.714 192.509L181.614 182.773L182.511 185.077L158.611 194.813C158.286 194.988 158.092 195.335 158.288 195.791L158.332 195.982L145.45 201.166C145.124 201.341 144.93 201.688 145.105 202.049C145.28 202.41 145.584 202.541 145.845 202.481L145.931 202.461L158.901 197.257L159.887 199.942C159.931 200.133 160.062 200.303 160.257 200.359C160.366 200.434 160.562 200.489 160.648 200.469L160.735 200.449L184.722 190.693L185.401 192.445L153.695 205.992C153.216 205.5 152.585 205.143 152.02 205.073C150.89 204.932 149.763 205.594 149.311 206.803C149.139 207.244 148.966 207.686 148.794 208.127C148.557 208.684 148.32 209.241 148.018 209.914C147.586 210.817 146.959 211.665 146.332 212.512L139.61 194.881C139.106 193.491 139.123 191.98 139.553 190.676C140.071 189.351 141.023 188.328 142.281 187.836L180.213 172.35C180.085 172.982 180.195 173.459 180.392 173.915ZM171.517 231.707L171.17 231.787C167.785 232.568 163.314 233.4 162.727 233.234L160.033 232.651C162.262 230.428 164.601 228.282 166.03 226.947L171.387 224.807C173.21 224.386 175.141 224.04 175.857 223.574C176.269 223.378 176.637 222.992 176.831 222.646L194.312 215.597L195.209 217.901L170.81 227.852C170.637 227.892 170.485 228.028 170.442 228.239C170.4 228.449 170.357 228.66 170.488 228.831L171.517 231.707ZM166.479 217.804C163.941 218.692 159.148 220.501 157.261 221.439C156.611 221.79 156.112 222.006 155.722 222.296C154.335 223.019 153.619 223.485 150.863 223.82C150.776 223.84 150.689 223.86 150.602 223.88L149.945 222.224C151.394 220.182 152.756 218.16 153.748 216.123L164.463 211.842L164.725 212.585C164.814 212.966 165.205 213.077 165.465 213.017L165.552 212.996L189.452 203.26L190.591 206.211L166.452 216.103C166.127 216.279 165.932 216.625 166.129 217.081L166.479 217.804ZM154.459 207.322L185.84 193.95L187.219 197.549L163.319 207.285C163.145 207.325 162.994 207.46 162.951 207.671C162.908 207.882 162.866 208.093 162.996 208.263L163.763 210.396L154.394 214.166C155.083 212.4 155.316 210.639 155.073 209.189C154.984 208.406 154.765 207.854 154.459 207.322ZM175.386 218.761L192.758 211.637L193.721 214.227L177.064 220.884C176.975 220.102 176.56 219.494 176.016 219.118C175.972 218.927 175.69 218.892 175.386 218.761ZM176.577 231.844L197.289 223.346L198.165 225.555L177.865 233.857C177.799 233.571 177.646 233.305 177.493 233.039C177.274 232.487 176.926 232.165 176.577 231.844ZM200.376 231.171L201.317 233.665L181.191 241.927C180.103 241.174 177.847 242.097 174.356 243.606C172.686 244.293 171.038 245.075 170.148 245.18C168.563 245.445 164.108 244.365 161.457 243.571C162.411 243.35 163.388 243.225 164.169 243.045C165.124 242.824 166.014 242.719 166.535 242.599C167.316 242.419 172.393 241.046 175.082 239.622L175.389 240.555C175.563 240.917 175.868 241.047 176.128 240.987L176.215 240.967L200.376 231.171ZM203.506 239.186L204.36 241.299L170.482 254.945C169.766 255.01 169.223 255.035 169.136 255.055C168.507 255.1 166.659 254.623 164.703 254.07L165.355 254.121C166.745 254.201 169.524 253.962 171.694 253.461C172.475 253.28 173.169 253.12 173.646 252.809C174.882 252.222 177.504 250.512 179.303 249.193C179.39 249.173 179.39 249.173 179.476 249.153L179.563 249.133L203.506 239.186ZM204.864 242.689L205.958 245.45L181.733 255.361C181.407 255.537 181.213 255.883 181.41 256.34L182.177 258.473L178.403 259.947C178.639 258.988 178.417 257.633 177.067 256.539C176.262 255.821 175.088 255.489 173.849 255.273L204.864 242.689ZM69.5678 233.65L69.7194 233.514C77.9844 223.772 84.212 208.374 88.2847 198.294C88.9093 196.643 89.5559 195.087 90.1597 193.743C94.1469 184.084 96.6541 180.291 100.815 177.724C105.526 177.138 124.411 174.586 140.953 172.977C155.607 171.502 171.633 171.619 178.235 171.702L141.712 186.561C140.129 187.228 138.96 188.502 138.249 190.173C137.624 191.824 137.609 193.736 138.287 195.488L145.228 213.671C144.709 214.193 144.102 214.735 143.409 215.296C141.849 216.46 140.635 217.142 139.682 217.764C137.926 218.872 136.799 219.534 135.35 221.576C134.507 222.675 131.263 226.839 125.673 231.142C123.574 226.404 123.5 223.709 123.521 223.403C123.801 222.635 125.177 218.3 122.609 209.553C120.129 201.186 114.15 191.92 108.098 187.091C107.771 186.865 107.424 186.945 107.121 187.216C106.927 187.562 107.015 187.943 107.276 188.285C113.176 192.848 118.893 201.773 121.329 209.948C123.831 218.41 122.454 222.344 122.281 222.785C121.872 223.784 122.382 227.181 124.482 231.919C121.903 233.82 118.956 235.706 115.486 237.31C112.039 239.01 109.48 240.204 107.529 241.257C103.106 243.483 100.808 244.616 95.1902 246.817C93.6071 247.484 87.2914 248.641 84.3817 248.71C78.3334 245.084 70.9963 239.045 69.4483 237.092C67.9664 235.425 68.0532 235.405 69.5678 233.65ZM136.815 259.203C129.257 258.939 122.862 262.525 117.486 265.774C114.929 267.369 112.872 269.15 110.381 271.432C107.653 273.87 104.318 276.85 99.0747 280.671C88.8046 288.064 78.6635 288.096 76.8809 287.503C75.0984 286.91 73.2328 287.541 71.8012 288.073C71.3024 288.288 70.7816 288.409 70.3476 288.509C69.2192 288.769 66.5404 286.274 65.9925 284.693C65.3579 283.132 63.6395 275.293 63.0829 270.902C62.7023 267.274 64.5195 258.116 65.2687 254.629C65.3322 254.112 65.4397 253.786 65.4605 253.48C65.7379 251.909 66.6656 249.988 68.9942 244.629C69.5332 243.4 70.137 242.055 70.7836 240.5C73.4405 242.9 77.5547 246.068 81.5588 248.759C81.3852 248.799 81.2764 248.724 81.1028 248.764C75.9558 248.646 70.7 248.454 67.5412 252.196C67.3248 252.447 67.3481 252.944 67.5877 253.19C67.8274 253.436 68.2834 253.431 68.5866 253.16C71.3126 249.919 76.0904 250.021 81.1506 250.159C82.1714 250.225 83.1703 250.195 84.1911 250.26C86.3844 250.256 90.53 249.6 93.2208 248.979C94.2624 248.739 95.2173 248.518 95.6292 248.323C101.312 246.007 103.523 244.893 108.033 242.647C110.093 241.669 112.543 240.401 116.012 238.796C128.263 232.854 135.055 224.256 136.309 222.56C137.628 220.749 138.604 220.222 140.272 219.134C141.226 218.512 142.44 217.83 144.086 216.646C144.715 216.2 145.256 215.774 145.689 215.272C146.057 214.886 146.36 214.615 146.728 214.229C148.113 212.704 149.02 211.088 149.667 209.533C149.969 208.861 150.206 208.304 150.421 207.651C150.421 207.651 150.399 207.556 150.486 207.536C150.723 206.979 151.2 206.668 151.765 206.738C151.851 206.718 151.96 206.794 152.069 206.869C152.482 207.075 152.918 207.376 153.158 208.024C153.355 208.48 153.552 208.937 153.706 209.605C154.058 211.13 153.5 213.067 152.594 215.084C152.292 215.756 151.99 216.429 151.602 217.121C150.889 218.39 150.09 219.68 149.181 220.894C148.835 221.375 148.554 221.742 148.295 222.203C147.668 223.051 147.106 223.784 146.457 224.536C146.283 224.576 146.087 224.521 145.827 224.581C143.048 224.821 141.355 225.011 140.682 225.266C140.357 225.442 140.163 225.788 140.338 226.15C140.513 226.511 140.839 226.737 141.164 226.561C141.75 226.326 143.899 226.131 146.048 225.936C146.309 225.876 146.591 225.911 146.851 225.851C147.741 225.746 148.632 225.641 149.522 225.536C149.956 225.436 150.412 225.431 150.846 225.331C153.863 224.935 154.665 224.449 156.139 223.707C156.551 223.511 157.028 223.2 157.613 222.965C159.825 221.851 164.532 220.062 166.744 219.35C167.005 219.29 167.178 219.25 167.439 219.19C167.699 219.13 167.873 219.089 167.873 219.089C167.873 219.089 167.96 219.069 168.069 219.145C168.525 219.14 169.372 219.246 170.328 219.427C170.806 219.517 171.197 219.628 171.653 219.623C172.131 219.713 172.522 219.824 172.914 219.934C174.065 220.171 174.957 220.467 175.174 220.618C175.392 220.768 175.567 221.13 175.568 221.531C175.59 221.627 175.59 221.627 175.525 221.742C175.504 222.048 175.31 222.394 174.898 222.59C174.248 222.941 172.425 223.362 170.667 223.667C170.493 223.707 170.32 223.747 170.146 223.787C168.214 224.133 167.086 224.393 166.609 224.704C166.371 224.86 165.829 225.286 165.071 225.963C164.249 226.756 163.101 227.724 162.062 228.767C160.265 230.488 158.468 232.208 157.883 232.846C157.732 232.981 157.624 233.307 157.69 233.593C157.756 233.879 157.974 234.03 158.191 234.18L162.169 235.171C163.147 235.447 169.245 234.14 171.241 233.679C171.415 233.639 171.675 233.578 171.849 233.538C172.89 233.298 173.671 233.118 174.301 233.073C175.213 233.063 175.735 233.344 176.172 234.047C176.325 234.313 176.369 234.504 176.413 234.694C176.479 234.98 176.523 235.171 176.589 235.457C176.655 235.743 176.547 236.069 176.504 236.28C176.354 236.817 176.008 237.299 175.575 237.8C175.575 237.8 175.489 237.82 175.511 237.916C175.446 238.031 175.207 238.186 175.034 238.227C174.882 238.362 174.622 238.422 174.47 238.558C172.259 239.671 167.724 241.019 166.075 241.4C165.554 241.52 164.686 241.72 163.71 241.845C158.371 242.877 158.393 242.972 158.242 243.509C158.2 243.72 158.201 244.122 158.418 244.272C159.029 244.935 167.874 247.211 170.262 246.861C171.325 246.716 172.973 245.934 174.817 245.207C175.316 244.991 176.053 244.62 176.725 244.365C178.07 243.853 179.502 243.322 180.131 243.277C180.218 243.257 180.327 243.332 180.327 243.332C180.458 243.503 180.588 243.673 180.719 243.844C181.003 244.281 181.004 244.682 181.07 244.968C181.051 245.676 180.662 246.368 180.207 246.775C179.969 246.93 179.666 247.201 179.276 247.492C179.124 247.627 178.886 247.783 178.734 247.918C178.583 248.054 178.344 248.209 178.193 248.344C176.372 249.568 174.01 251.218 172.774 251.805C171.127 252.587 167.024 253.032 165.091 252.976L164.266 252.966C163.354 252.976 162.333 252.91 161.334 252.94C160.878 252.945 160.335 252.969 159.879 252.974C159.249 253.019 158.62 253.064 158.099 253.184C157.752 253.264 157.471 253.631 157.559 254.012C157.647 254.394 157.995 254.715 158.342 254.635C158.776 254.534 159.319 254.51 159.862 254.485C159.884 254.58 159.993 254.655 160.08 254.635C160.166 254.615 160.275 254.691 160.471 254.746C160.862 254.856 161.362 255.042 162.145 255.263C163.818 255.781 166.101 256.56 167.709 256.791C168.273 256.862 168.751 256.952 169.099 256.872C169.555 256.867 170.097 256.842 170.64 256.817C172.638 256.758 175.006 257.115 176.116 257.964C177.14 258.832 176.969 259.675 176.948 259.981C176.775 260.423 176.472 260.694 176.277 260.638C175.625 260.588 174.149 260.929 172.391 261.234C170.807 261.499 168.984 261.92 167.812 261.99C167.009 262.075 165.988 262.009 164.771 261.888C164.293 261.798 163.837 261.803 163.272 261.732C162.512 261.607 161.578 261.521 160.709 261.32C159.47 261.104 158.145 260.907 156.646 260.751C151.539 259.62 143.721 259.416 136.815 259.203ZM149.061 223.935C148.887 223.975 148.604 223.94 148.344 224C148.474 223.769 148.625 223.634 148.842 223.383L149.061 223.935ZM145.984 274.763C145.764 273.809 143.894 266.106 139.903 260.7C145.897 260.923 152.174 261.181 156.519 261.785C157.931 261.961 159.256 262.157 160.495 262.374C161.733 262.59 162.776 262.751 163.797 262.816L175.839 294.386C175.209 294.029 174.447 293.502 173.598 292.995C166.353 288.541 147.054 276.625 145.984 274.763ZM149.261 281.037C148.76 280.45 147.997 279.521 148.297 278.447C152.368 281.425 160.07 286.275 172.995 294.339C174.605 295.374 175.866 296.087 176.628 296.614C176.628 296.614 176.628 296.614 176.715 296.594L179.911 304.895C171.731 299.954 150.024 281.966 149.261 281.037ZM212.133 345.063C211.396 345.434 210.81 345.67 210.225 345.906C196.519 351.882 184.322 354.095 173.871 352.39C161.335 350.363 153.955 344.534 152.474 343.269C152.831 339.269 153.817 335.225 154.824 330.875C156.411 324.282 158.04 317.477 157.54 310.562C156.816 301.088 155.19 295.236 151.989 285.329C159.348 291.464 175.175 304.181 180.569 306.953L191.78 336.504C192.459 338.256 193.679 339.581 195.245 340.425C196.485 341.043 197.897 341.219 199.199 340.918C199.546 340.838 199.807 340.778 200.132 340.602L239.495 324.183C240.148 324.635 241.017 324.836 241.885 324.636L257.096 320.823L257.182 320.803L269.78 314.78C270.939 324.155 272.559 328.401 273.629 330.263C245.941 329.926 221.414 340.912 212.133 345.063ZM290.179 303.342L256.852 319.372L241.728 323.165C241.207 323.285 240.621 323.12 240.272 322.798C240.272 322.798 240.25 322.703 240.163 322.723C239.946 322.572 239.793 322.306 239.727 322.02L236.969 315.225L181.563 173.444C181.322 172.797 181.428 172.069 181.752 171.492C181.817 171.377 181.969 171.241 182.12 171.106L194.947 161.717L206.595 157.521L206.768 157.481L232.234 148.187C233.492 147.696 234.796 148.198 235.603 149.317C235.603 149.317 235.603 149.317 235.625 149.413C235.778 149.679 235.931 149.945 235.997 150.231L291.535 299.313C292.256 300.854 291.654 302.6 290.179 303.342ZM295.772 300.243C294.624 301.211 294.19 301.311 293.276 300.518C293.23 299.926 293.185 299.333 292.966 298.781L237.428 149.699C237.406 149.604 237.384 149.509 237.276 149.433C237.623 149.353 237.97 149.273 238.317 149.193L295.772 300.243ZM299.024 298.488C298.372 298.437 297.482 298.542 296.595 299.45C296.53 299.566 296.378 299.701 296.292 299.721L239.054 148.822C239.488 148.722 240.009 148.601 240.421 148.406L299.024 298.488ZM301.866 297.731C301.716 298.268 301.608 298.594 301.197 298.79C300.871 298.965 300.589 298.93 300.002 298.764C299.915 298.784 299.893 298.689 299.806 298.709L241.051 148.361C241.485 148.261 242.006 148.141 242.417 147.945L303.403 296.071C302.339 296.216 302.081 297.079 301.866 297.731ZM307.199 294.692C307.179 295.4 307.116 295.916 306.9 296.167C306.596 296.438 305.836 296.312 305.097 296.282C304.815 296.247 304.446 296.232 304.077 296.216L242.96 147.92C243.568 147.78 244.067 147.564 244.501 147.464L307.154 294.1C307.176 294.195 307.22 294.386 307.199 294.692ZM309.354 289.373C308.789 289.303 308.333 289.308 307.965 289.694C307.445 290.216 307.252 290.964 307.191 292.283L245.151 147.113C245.585 147.013 245.997 146.817 246.171 146.777C246.171 146.777 246.171 146.777 246.257 146.757L310.442 290.127C310.158 289.69 309.745 289.484 309.354 289.373ZM312.754 286.279C311.668 286.328 311.521 288.07 311.508 290.784L246.799 146.331C246.973 146.291 247.124 146.155 247.363 146L315.214 288.222C314.189 286.952 313.47 286.214 312.754 286.279ZM320.48 284.897C318.78 283.079 317.299 281.413 316.149 281.979C315 282.546 315.246 284.799 315.908 288.061L247.926 145.669C248.251 145.493 248.49 145.338 248.902 145.142L321.809 286.297C321.352 285.901 320.85 285.313 320.48 284.897ZM327.924 283.479C327.249 282.932 326.226 282.063 325.529 281.421C323.351 279.513 322.546 278.795 321.851 278.956C320.723 279.216 321.097 280.837 321.669 283.316C321.802 283.888 321.956 284.556 322.023 285.243L249.465 144.811C249.791 144.636 250.094 144.365 250.419 144.189L327.924 283.479ZM333.008 277.384C330.81 275.782 329.482 274.783 328.592 274.888C327.181 275.114 327.493 277.653 327.981 280.955C328.091 281.432 328.115 281.929 328.203 282.31L251.047 143.743C251.437 143.452 251.762 143.277 252.152 142.986L334.836 278.569C334.205 278.213 333.465 277.781 333.008 277.384ZM341.66 273.278C339.744 271.711 337.175 269.693 335.486 271.087C333.883 272.462 334.457 275.342 334.876 277.555L252.629 142.675C253.019 142.384 253.496 142.073 253.951 141.667L342.291 273.634C342.313 273.729 342.335 273.825 342.357 273.92C342.117 273.674 341.9 273.523 341.66 273.278ZM349.179 268.227C348.679 268.041 348.049 267.685 347.526 267.403C345.134 266.148 342.719 264.797 341.637 266.051C340.685 267.075 341.213 269.363 341.829 271.632L254.623 141.411C255.251 140.965 255.793 140.538 256.399 139.997L349.179 268.227ZM354.215 260.335C352.953 259.622 351.147 258.533 349.438 260.635C348.572 261.638 349.014 263.946 349.325 266.084C349.435 266.561 349.502 267.249 349.612 267.725L256.81 139.4C256.875 139.284 256.962 139.264 257.026 139.149C257.568 138.722 258.087 138.201 258.629 137.774L355.737 260.988C355.281 260.993 354.759 260.712 354.215 260.335ZM363.272 254.026C362.446 253.614 361.075 252.826 360.118 252.243C358.834 251.435 357.9 251.349 357.142 252.026C355.756 253.15 356.091 256.186 356.552 257.787C356.97 259.599 357.125 260.668 356.78 261.149C356.78 261.149 356.693 261.169 356.628 261.285L259.193 137.443C259.712 136.922 260.167 136.515 260.622 136.109L363.272 254.026ZM369.241 246.22C367.329 245.858 365.439 245.591 364.246 245.967C361.817 246.93 362.805 250.418 363.42 252.686C363.464 252.877 363.508 253.068 363.552 253.258L261.141 135.587C261.812 134.93 262.288 134.218 262.785 133.601L372.412 246.492C371.892 246.612 370.284 246.381 369.241 246.22ZM378.355 236.985C377.79 236.914 376.92 236.713 376.073 236.608L375.486 236.442C372.509 235.824 371.231 236.621 370.69 237.449C370.063 238.297 370.067 239.501 370.571 240.891C370.746 241.253 370.921 241.614 371.031 242.091C371.599 243.366 372.037 244.47 372.279 245.519L263.131 133.119C263.585 132.311 264.038 131.504 264.557 130.581L378.355 236.985ZM377.846 233.989C378.065 234.541 378.392 235.168 378.633 235.816C378.808 236.177 378.874 236.463 378.918 236.654L264.837 129.813C265.116 129.045 265.483 128.257 265.828 127.374L383.905 227.367C381.45 227.03 378.236 226.969 377.328 228.183C376.03 229.688 376.883 231.801 377.846 233.989ZM378.929 233.136C378.119 231.214 377.659 230.014 378.287 229.167C378.936 228.414 382.715 228.546 385.974 229.2L386.758 229.822C384.805 230.474 381.031 231.948 378.929 233.136ZM403.932 201.25L387.928 228.949L266.214 125.879L286.202 101.177C287.63 99.4414 290.126 99.1664 291.955 100.753L320.762 125.338C319.963 126.627 319.143 128.223 318.344 129.914L318.085 130.375C317.287 132.066 316.791 133.085 316.237 136.627C316.11 137.661 316.592 138.956 317.593 139.729C317.92 139.955 318.246 140.181 318.638 140.291C318.66 140.387 318.682 140.482 318.726 140.673C318.946 141.626 319.729 142.249 320.641 142.239C320.49 142.375 320.36 142.606 320.296 142.721C318.977 144.532 317.334 146.92 318.253 149.319C318.472 149.871 318.909 150.574 319.973 150.83C320.647 150.976 321.559 150.966 322.427 150.766C323.295 150.565 324.293 150.134 325.181 149.628C324.99 150.777 325.167 151.941 325.799 152.699C326.3 153.287 327.389 154.04 329.535 153.042C333.655 151.086 339.084 144.108 339.733 143.356C340.101 142.969 340.382 142.603 340.663 142.237L342.362 143.653C341.301 144.601 339.935 145.418 338.743 146.196C337.79 146.817 337.052 147.189 336.684 147.575C335.732 148.598 335.433 150.073 335.566 151.047C335.611 151.639 335.895 152.076 336.221 152.302C335.593 152.748 335.14 153.556 335.36 154.509C335.602 155.558 336.581 156.236 337.536 156.016C338.491 155.795 339.074 154.757 338.832 153.708C338.766 153.422 338.613 153.156 338.46 152.89C338.916 152.885 339.35 152.785 339.871 152.664C340.565 152.504 341.411 152.208 342.257 151.913L342.344 151.893C342.366 151.988 342.388 152.083 342.41 152.179C342.652 153.228 343.631 153.905 344.586 153.685C345.541 153.465 346.124 152.426 345.882 151.377C345.794 150.996 345.619 150.634 345.38 150.388C346.355 149.862 347.309 149.24 348.175 148.638L403.024 195.333C404.613 196.674 405.121 199.268 403.932 201.25Z" fill="black"/>
<path d="M312.318 126.384C313.273 126.163 313.856 125.125 313.614 124.076C313.372 123.027 312.392 122.349 311.437 122.57C310.483 122.79 309.9 123.829 310.142 124.877C310.297 125.946 311.276 126.624 312.318 126.384Z" fill="black"/>
<path d="M312.441 130.875C311.486 131.095 310.903 132.134 311.145 133.183C311.387 134.232 312.367 134.909 313.322 134.689C314.276 134.469 314.86 133.43 314.617 132.381C314.462 131.312 313.396 130.654 312.441 130.875Z" fill="black"/>
<path d="M313.294 139.717C312.339 139.938 311.756 140.976 311.998 142.025C312.24 143.074 313.22 143.752 314.174 143.531C315.129 143.311 315.712 142.273 315.47 141.224C315.228 140.175 314.249 139.497 313.294 139.717Z" fill="black"/>
<path d="M329.516 153.749C328.561 153.97 327.978 155.008 328.22 156.057C328.462 157.106 329.441 157.784 330.396 157.563C331.351 157.343 331.934 156.304 331.692 155.256C331.45 154.207 330.471 153.529 329.516 153.749Z" fill="black"/>
<path d="M352.919 165.621C351.964 165.842 351.381 166.88 351.624 167.929C351.866 168.978 352.845 169.656 353.8 169.436C354.755 169.215 355.338 168.177 355.096 167.128C354.94 166.059 353.961 165.381 352.919 165.621Z" fill="black"/>
<path d="M353.488 174.027C352.534 174.248 351.951 175.286 352.193 176.335C352.435 177.384 353.414 178.062 354.369 177.841C355.324 177.621 355.907 176.582 355.665 175.533C355.423 174.485 354.443 173.807 353.488 174.027Z" fill="black"/>
<path d="M367.768 170.931C366.813 171.152 366.23 172.19 366.472 173.239C366.714 174.288 367.694 174.966 368.648 174.746C369.603 174.525 370.186 173.487 369.944 172.438C369.811 171.464 368.723 170.711 367.768 170.931Z" fill="black"/>
<path d="M359.797 163.732C358.843 163.953 358.26 164.991 358.502 166.04C358.744 167.089 359.723 167.767 360.678 167.546C361.633 167.326 362.216 166.287 361.974 165.238C361.818 164.169 360.839 163.492 359.797 163.732Z" fill="black"/>
<path d="M360.653 173.377C359.698 173.598 359.115 174.636 359.357 175.685C359.599 176.734 360.579 177.412 361.534 177.192C362.488 176.971 363.071 175.933 362.829 174.884C362.587 173.835 361.608 173.157 360.653 173.377Z" fill="black"/>
<path d="M345.649 166.999C344.694 167.219 344.111 168.258 344.353 169.306C344.595 170.355 345.575 171.033 346.529 170.813C347.484 170.592 348.067 169.554 347.825 168.505C347.583 167.456 346.604 166.778 345.649 166.999Z" fill="black"/>
<path d="M351.435 156.422C350.48 156.643 349.897 157.681 350.139 158.73C350.382 159.779 351.361 160.457 352.316 160.237C353.271 160.016 353.854 158.978 353.611 157.929C353.369 156.88 352.39 156.202 351.435 156.422Z" fill="black"/>
<path d="M345.08 158.593C344.125 158.813 343.542 159.852 343.784 160.9C344.026 161.949 345.005 162.627 345.96 162.407C346.915 162.186 347.498 161.148 347.256 160.099C347.036 159.145 346.034 158.372 345.08 158.593Z" fill="black"/>
<path d="M337.441 160.356C336.486 160.577 335.903 161.615 336.145 162.664C336.388 163.713 337.367 164.391 338.322 164.17C339.277 163.95 339.86 162.911 339.617 161.862C339.484 160.889 338.483 160.116 337.441 160.356Z" fill="black"/>
<path d="M325.666 110.145C335.477 108.683 343.132 112.139 346.086 119.391C346.261 119.752 346.565 119.883 346.826 119.823L346.913 119.803C347.238 119.627 347.41 119.186 347.235 118.824C343.975 111.04 335.581 107.153 325.336 108.714C324.989 108.795 324.707 109.161 324.795 109.542C324.884 109.924 325.232 110.245 325.666 110.145Z" fill="black"/>
<path d="M335.854 104.378C339.259 102.889 341.631 104.45 342.701 106.312C342.854 106.578 343.158 106.709 343.418 106.649C343.505 106.629 343.592 106.609 343.592 106.609C343.917 106.433 343.981 105.916 343.806 105.555C342.016 102.553 338.69 101.614 335.264 103.007C334.938 103.183 334.766 103.625 334.941 103.986C335.116 104.347 335.442 104.573 335.854 104.378Z" fill="black"/>
<path d="M72.227 306.153C58.3032 304.848 50.2251 297.975 48.2105 285.685C48.1224 285.304 47.774 284.982 47.4268 285.062C47.0796 285.143 46.7984 285.509 46.8865 285.89C48.9904 298.963 57.4609 306.348 72.1233 307.684C72.2101 307.664 72.2101 307.664 72.2969 307.644C72.5573 307.584 72.7736 307.333 72.7944 307.027C72.9447 306.49 72.5963 306.169 72.227 306.153Z" fill="black"/>
<path d="M272.083 72.096C272.387 72.2266 272.757 72.2418 273.017 72.1816C273.712 72.0213 274.405 71.4596 275.032 70.6117C275.659 69.7639 276.133 68.65 276.521 67.5562C277.273 65.2732 277.44 62.8244 276.675 61.4943C276.653 61.3989 276.631 61.3036 276.523 61.2283C276.239 60.7916 275.146 58.4326 273.834 55.5215L280.821 46.9782L284.012 53.6737C282.646 54.0897 281.371 56.0915 280.618 58.3745C279.715 61.1944 279.638 64.4261 281.269 65.1543C281.573 65.2849 281.942 65.3001 282.203 65.24C282.897 65.0797 283.59 64.5179 284.218 63.6701C284.845 62.8222 285.319 61.7084 285.706 60.6146C286.33 58.5624 286.562 56.3996 286.058 55.0094L279.675 41.6184C279.544 41.4477 279.413 41.277 279.131 41.2418C278.935 41.1865 278.675 41.2466 278.545 41.4774L270.692 51.024C270.563 51.2548 270.455 51.581 270.608 51.847C272.774 56.871 273.998 59.4007 274.61 60.8662C273.33 61.2622 272.055 63.2639 271.303 65.5469C270.442 68.156 270.365 71.3877 272.083 72.096ZM271.997 51.5263L278.92 43.0984L280.144 45.6281L273.134 54.076C272.762 53.2579 272.369 52.3444 271.997 51.5263Z" fill="black"/>
<path d="M50.8746 214.061C52.1766 213.761 53.7352 212.196 54.7498 210.254C55.592 208.754 56.1298 207.123 56.1908 205.803C56.1688 205.708 56.1468 205.613 56.2116 205.497C56.1562 201.694 53.7397 192.81 52.3566 188.007C53.7051 188.7 55.2247 188.55 56.462 188.365C58.8496 188.015 60.5428 187.825 61.2951 192.271C61.3832 192.653 61.7316 192.974 62.0788 192.894C62.426 192.814 62.7072 192.447 62.6191 192.066C61.5367 186.189 58.6282 186.66 56.2406 187.01C54.2869 187.26 52.7025 187.526 51.4357 185.207C51.2609 184.846 50.8697 184.735 50.5445 184.91C50.2193 185.086 50.1117 185.412 50.1998 185.794C51.6697 190.576 53.9322 198.792 54.5548 203.469C53.0339 203.218 51.2589 205.034 50.028 207.226C48.6027 209.765 47.9611 212.926 49.4845 213.981C49.9626 214.071 50.4406 214.162 50.8746 214.061Z" fill="black"/>
<path d="M121.185 302.785C119.363 303.206 117.627 303.607 116.168 302.437C115.95 302.286 115.581 302.271 115.365 302.522C115.148 302.773 115.128 303.079 115.302 303.44C116.111 304.961 117.05 306.653 118.011 308.44C118.011 308.44 118.011 308.44 118.033 308.535C119.649 311.577 121.266 314.618 122.227 316.405C120.86 316.821 119.585 318.823 118.81 321.01C118.315 322.43 118.103 323.886 118.106 325.09C118.177 326.982 118.961 327.604 119.374 327.81C119.679 327.941 120.048 327.956 120.309 327.896C121.697 327.575 123.059 325.554 123.812 323.271C124.544 321.294 124.776 319.131 124.272 317.741C124.184 317.359 122.677 314.393 119.771 308.937C120.401 308.892 121.095 308.732 121.703 308.591C124.22 308.01 126.239 307.645 127.768 310.706C127.921 310.972 128.248 311.198 128.508 311.138C128.595 311.118 128.595 311.118 128.682 311.098C129.007 310.923 129.092 310.501 128.918 310.14C126.885 306.089 123.999 306.655 121.395 307.257C120.614 307.437 119.746 307.637 119.007 307.607C118.527 306.713 118.024 305.725 117.435 304.756C118.869 305.027 120.258 304.707 121.56 304.406C124.077 303.825 126.095 303.46 127.625 306.521C127.8 306.883 128.191 306.993 128.516 306.818C128.841 306.642 128.927 306.221 128.752 305.859C126.763 301.598 123.789 302.184 121.185 302.785Z" fill="black"/>
<path d="M116.653 96.6307C117.044 96.7413 117.347 96.4704 117.433 96.0489C117.519 95.6274 117.257 95.2861 116.866 95.1755C113.302 94.3913 108.206 96.8734 105.945 102.919C105.838 103.246 105.948 103.722 106.339 103.833C106.448 103.908 106.621 103.868 106.708 103.848C106.882 103.808 107.12 103.653 107.163 103.442C109.123 98.4695 113.502 96.0524 116.653 96.6307Z" fill="black"/>
<path d="M131.383 98.6538C130.992 98.5432 130.666 98.7187 130.581 99.1402C130.495 99.5617 130.67 99.9231 131.061 100.034C131.953 100.33 132.865 100.32 133.82 100.1C135.903 99.619 137.787 97.8784 139.168 95.1491C139.362 94.8029 139.252 94.3261 138.926 94.1002C138.599 93.8742 138.165 93.9744 137.971 94.3206C136.31 97.8176 133.752 99.4124 131.383 98.6538Z" fill="black"/>
<path d="M121.521 104.647C121.606 104.225 121.345 103.884 120.954 103.773C120.562 103.663 120.259 103.934 120.174 104.355C119.746 106.463 118.186 107.626 117.21 108.153C115.585 109.03 113.696 109.165 112.543 108.527C112.216 108.301 111.804 108.497 111.61 108.843C111.416 109.189 111.612 109.646 111.939 109.872C112.983 110.434 114.373 110.515 115.849 110.175C116.543 110.014 117.129 109.779 117.779 109.428C119.817 108.354 121.071 106.659 121.521 104.647Z" fill="black"/>
</svg>
